<svg xmlns="http://www.w3.org/2000/svg" width="38.822" height="28" viewBox="0 0 38.822 28"><path d="M271.225,249.013a6.1,6.1,0,1,0,6.1-6.1A6.1,6.1,0,0,0,271.225,249.013Zm6.1,4.065a4.038,4.038,0,0,1-2.445-.825l1.612-1.612a1.819,1.819,0,0,0,1.574.044l1.626,1.626A4.038,4.038,0,0,1,277.323,253.079Zm4.065-4.065a4.039,4.039,0,0,1-.825,2.445l-1.612-1.612a1.819,1.819,0,0,0,0-1.666l1.612-1.612A4.039,4.039,0,0,1,281.388,249.013Zm-4.065-4.065a4.038,4.038,0,0,1,2.368.767l-1.626,1.626a1.819,1.819,0,0,0-1.574.044l-1.612-1.612A4.039,4.039,0,0,1,277.323,244.948Zm-3.3,1.7,1.626,1.626a1.819,1.819,0,0,0,0,1.483l-1.626,1.626a4.036,4.036,0,0,1,0-4.735Zm10.238.648a5.468,5.468,0,0,1-.244,4.122,2.755,2.755,0,0,1,2.041,2.678v4.574h4.065v-4.574A6.88,6.88,0,0,0,284.263,247.294Zm-13.907,4.058a7.836,7.836,0,0,1-.351-2.236,7.457,7.457,0,0,1,.231-1.829h-.1c-3.923,0-7.659,2.886-7.659,6.808v4.574h4.065v-4.574c0-1.681,1.913-2.743,3.594-2.743Zm12.425,3.659h-1.129a7.865,7.865,0,0,1-4.329,1.423,7.654,7.654,0,0,1-6.331-3.659h-.851a3.341,3.341,0,0,0-.4.024l-.2,2.212h-1.98v3.659h15.854V256.04C283.417,255.444,283.377,255.01,282.781,255.01Zm-10.017-18.6a2.014,2.014,0,0,1-.463-1.045,1.4,1.4,0,0,1,.567-.945s-.023.344-.023.518c0,.479.289.477.382.489a.4.4,0,0,0,.463-.44c.018-.451-.6-.746-.6-1.27a.948.948,0,0,1,.26-.628,1.837,1.837,0,0,0,.707,1.064c.437.4.873.458.884,1.141s-.77,1.116-.77,1.116a2.007,2.007,0,0,0,1.655-2.048,1.667,1.667,0,0,0-1.065-1.527s-.159.4-.451.4-.4-.13-.4-.431.257-.457.257-1.241c0-.607-.708-.895-.708-.895a1.163,1.163,0,0,1,.16.507c0,.619-2.206,1.412-2.206,3.477A2.1,2.1,0,0,0,272.764,236.412Zm-8.817,11.931c.034-.029.155-.005.19-.034l-.182-4.478h-7.333l-.66,11.179h-3.231c-.6,0-1.428.434-1.428,1.03v2.629h9.756v-4.574A7.667,7.667,0,0,1,263.947,248.343Zm-7.392-5.493.109-.034h7.313c.572,0,.538-.333.538-.855v-.09c0-.522.034-.884-.538-.884H263.8l-.189-3.252h-6.642l-.3,3.216a1.036,1.036,0,0,0-1.1.921v.09A1.007,1.007,0,0,0,256.555,242.849Zm.267-5.914.187-.015h6.653c.522,0,.649-.377.649-.9v-.09c0-.522-.127-.841-.649-.841h-.21l-.361-1.9v-.024c0-.683-1.247-1.154-2.935-1.154-1.669,0-2.895.642-2.924,1.252h0l-.1,1.829h-.03c-.522,0-1.32.319-1.32.841v.09C255.775,236.515,256.341,236.892,256.822,236.935Zm19.285,4.966-.344-3.761h-.005a5.752,5.752,0,0,0-4.668,0h-.005l-.743,8.13h.243A6.993,6.993,0,0,1,276.107,241.9Z" transform="translate(-251.303 -230.669)" fill="#4162c2"/></svg>