<svg xmlns="http://www.w3.org/2000/svg" width="48" height="54" viewBox="0 0 48 54"><g transform="translate(-55 -980)"><text transform="translate(79 1020)" fill="#262b47" font-size="11" font-family="BioSans-Bold, Bio Sans" font-weight="700"><tspan x="-23.419" y="0">Myanmar</tspan><tspan x="-16.759" y="11">Import</tspan></text><g transform="translate(61.619 980)"><rect width="34" height="26" transform="translate(0.381 0)" fill="#fecb00"/><rect width="34" height="18" transform="translate(0.381 8)" fill="#34b233"/><rect width="34" height="8" transform="translate(0.381 18)" fill="#ea2839"/><g transform="translate(8.306 4.406)"><path d="M-1.437,4.946,1.208-4.422,3.854,4.946Z" transform="translate(7.491 4.422)" fill="#fff"/><path d="M.209,8.812,2.408.058,5.775,9.192Z" transform="matrix(-0.809, -0.588, 0.588, -0.809, 5.829, 18.409)" fill="#fff"/><path d="M-.125,8.329,3.241-.047,5.886,8.094Z" transform="translate(0 9.57) rotate(-72)" fill="#fff"/><path d="M.123,8.181,2.768.04,6.135,8.415Z" transform="translate(15.625 3.828) rotate(72)" fill="#fff"/><path d="M-.214,9.058,3.152-.076l2.2,8.755Z" transform="matrix(-0.809, 0.588, -0.588, -0.809, 15.99, 15.033)" fill="#fff"/></g></g></g></svg>