<svg xmlns="http://www.w3.org/2000/svg" width="424" height="129.059" viewBox="0 0 424 129.059"><g transform="translate(-50 -46.941)"><text transform="translate(50 162)" fill="#fff" font-size="51" font-family="BioSans-ExtraBold, Bio Sans" font-weight="800" letter-spacing="0.015em"><tspan x="0" y="0">GAS VALUE CHAIN</tspan></text><g transform="translate(51.75 46.941)"><path d="M132.469,24.46l3.143-9.752s-15.167,6.693-15.167,6.648c-.194.611-.285,1.073-.964,2.981l-7.262,0,3.164-9.689s-15.167,6.8-15.167,6.763a22.019,22.019,0,0,0-.984,3.054H91.367l-1.649,4.981c-2.033-3.727-6.756-5.163-11.389-5.163C72,24.279,67.66,26.97,65.91,30.732H64.321a11.44,11.44,0,0,1,4.916-6.525c.083-.06-8.15.05-8.15.05a4.7,4.7,0,0,0-2.891.92,6.648,6.648,0,0,0-2.177,2.64L44.306,63.338h9.069a5.153,5.153,0,0,0,3.308-1.087,4.246,4.246,0,0,0,1.731-2.28L60.4,54.15l1.7-5.529,5.942-17.888h4.572c3.462,0,6.722-.631,4.8,5.8-2.675,8.95-8.372,11.426-12.016,12.024l-1.6,5.011C70.169,53.47,84.2,52.105,88.462,42.6c2.339-5.209,2.725-9.355,1.88-11.863h6.8s-3.875,11.845-4.9,14.892c-1.707,5.043,1.468,7.681,5.94,7.681H108.45s1.506-4.622,1.535-4.5c-4.278,0-5.53-.872-4.278-4.625.82-2.463,4.424-13.446,4.424-13.446H117.4s-3.993,11.95-4.979,15.014c-1.565,4.867,1.758,7.613,6.009,7.682,2.368.039,10.268.015,10.272.015s1.5-4.689,1.532-4.571c-4.281,0-5.533-.907-4.281-4.659.826-2.463,4.424-13.481,4.424-13.481h6.767l2.084-6.27h-6.759Z" transform="translate(11.257 3.72)" fill="#fcfeff"/><path d="M36.094,23.269a118.281,118.281,0,0,1-8.075-9.852C26,10.466,24.746,7.965,24.746,5.382A16.992,16.992,0,0,1,25.757.212L25.7,0c-2.97,7.158-4.665,11.441-4.1,17.536.6,6.5,5.03,11.713,9.086,16.068,3.272,3.515,5.25,5.735,6.159,9.772a17.925,17.925,0,0,1-3.2,14.42c-5.024,6.812-13.495,7.053-13.495,7.053V66.9s10.022-.381,16.605-6.361c4.548-4.126,6.339-7.723,7.526-13.283,1.011-4.723-.113-11.461-3.06-16.638A46.4,46.4,0,0,0,36.094,23.269Z" transform="translate(5.118 0)" fill="#fcfeff"/><path d="M10.835,57.8a17.472,17.472,0,0,1-2.861-14.42c.91-4.037,2.882-6.255,6.152-9.772,4.056-4.355,8.475-9.567,9.079-16.068.568-6.095-1.132-10.377-4.1-17.536l-.06.211a17.057,17.057,0,0,1,1.007,5.171c0,2.582-1.252,5.084-3.268,8.035a119.089,119.089,0,0,1-8.076,9.852A46.819,46.819,0,0,0,3.5,30.617C.551,35.794-.659,42.532.349,47.254c1.188,5.561,2.83,9.157,7.376,13.283C14.309,66.518,24,66.9,24,66.9v-2.05A18.359,18.359,0,0,1,10.835,57.8Z" transform="translate(0.001 0)" fill="#fcfeff"/><path d="M38.959,43.749a15.688,15.688,0,0,0-4.8-11.359,59.984,59.984,0,0,1-7.884-9.472,24.688,24.688,0,0,1-3.162-7.746,25.257,25.257,0,0,1-3.21,7.746,62.239,62.239,0,0,1-7.992,9.627,15.845,15.845,0,1,0,27.05,11.2ZM23.112,56.693A12.945,12.945,0,1,1,36.058,43.749,12.947,12.947,0,0,1,23.112,56.693Z" transform="translate(1.847 3.854)" fill="#fcfeff"/></g></g></svg>