<svg xmlns="http://www.w3.org/2000/svg" width="49.615" height="43.784" viewBox="0 0 49.615 43.784"><path d="M101.786,59.395a28.678,28.678,0,0,1-3.758-4.514A11.46,11.46,0,0,1,96.536,51.2a11.616,11.616,0,0,1-1.53,3.681,31.526,31.526,0,0,1-3.8,4.591A7.535,7.535,0,1,0,104.072,64.8a7.443,7.443,0,0,0-2.286-5.405" transform="translate(-71.738 -42.153)" fill="#262261"/><path d="M108.421,95.861a6.161,6.161,0,1,1-6.161-6.161,6.151,6.151,0,0,1,6.161,6.161" transform="translate(-77.463 -73.194)" fill="#ec2027"/><path d="M140.125,19.069a23.051,23.051,0,0,0-2.48-3.507,55.381,55.381,0,0,1-3.836-4.688,6.9,6.9,0,0,1-1.55-3.817,8.133,8.133,0,0,1,.484-2.46l-.019-.1c-1.414,3.41-2.228,5.444-1.957,8.35.291,3.1,2.383,5.579,4.32,7.652,1.55,1.666,2.5,2.732,2.925,4.65a8.265,8.265,0,0,1-1.356,6.858,8.728,8.728,0,0,1-6.258,3.352v.969a13.628,13.628,0,0,0,7.73-3.022,10.319,10.319,0,0,0,3.487-6.316,12.2,12.2,0,0,0-1.492-7.924" transform="translate(-105.118 -4.5)" fill="#29abe2"/><path d="M71.78,32.01a8.338,8.338,0,0,1-1.356-6.858c.426-1.918,1.376-2.983,2.925-4.65,1.937-2.073,4.03-4.553,4.32-7.652.271-2.906-.542-4.94-1.957-8.35l-.019.1a7.968,7.968,0,0,1,.484,2.46,7.042,7.042,0,0,1-1.55,3.817,59.45,59.45,0,0,1-3.836,4.688,22.12,22.12,0,0,0-2.48,3.507A12.216,12.216,0,0,0,66.8,26.992a10.348,10.348,0,0,0,3.507,6.316,13.584,13.584,0,0,0,7.73,3.022v-.969A8.7,8.7,0,0,1,71.78,32.01" transform="translate(-53.705 -4.5)" fill="#29abe2"/><path d="M114.645,90.414,113.6,84.137h.775V83.11h-.949l-.31-1.86-.019-.077h.426v-.93h-.872l-.213-1.143h-1.143l-.213,1.143h-.891v.969h.426l-.019.077-.31,1.86h-.93v1.027h.756l-1.046,6.277H108v1.1h.639v1.007a6.429,6.429,0,0,0,1.162.562V91.557h4.126v1.569a6.429,6.429,0,0,0,1.162-.562V91.557h.639v-1.1m-2.577-6.316.329,1.937-1.317-1.937Zm-1.3-2.6.988,1.569h-1.976Zm-.969.736.174-1.085h.5Zm1.279-1.066h.5l.174,1.085Zm1.162,5.444H110.4l1.472-2.15Zm-2.751-2.519h.988l-1.317,1.937Zm-.5,2.983h1.492l-1.937,2.751Zm-.31,3.293,2.092-2.945,2.092,2.945Zm2.4-3.293h1.492l.465,2.751Z" transform="translate(-87.058 -64.648)" fill="#fff"/><path d="M9.78,189.319H18.3V191.2h-3v6.083H12.783V191.2h-3m10.636,0h3v6.083h2.519V191.2h3v-1.879H20.416ZM7.572,190.056a2.587,2.587,0,0,1,.794,1.918,2.63,2.63,0,0,1-.794,1.937,2.766,2.766,0,0,1-1.976.756H2.419v2.6H-.1V189.3H5.615a2.93,2.93,0,0,1,1.957.756m-1.259,1.937a.945.945,0,0,0-.174-.62A.715.715,0,0,0,5.6,191.2H2.419v1.608h3.2a.715.715,0,0,0,.542-.174,1.226,1.226,0,0,0,.155-.639m43.2,0a2.63,2.63,0,0,1-.794,1.937,2.766,2.766,0,0,1-1.976.756h-3.2v2.6H41.029v-7.962h5.715a2.832,2.832,0,0,1,1.976.756,2.526,2.526,0,0,1,.794,1.918m-2.054,0a.945.945,0,0,0-.174-.62.715.715,0,0,0-.542-.174h-3.2v1.608h3.2a.748.748,0,0,0,.542-.174,1.051,1.051,0,0,0,.174-.639M33.571,191.2h4.96l.736-1.879H31.11V194.4a2.848,2.848,0,0,0,.852,2.054,4.066,4.066,0,0,0,2.615.833h4.533V195.4h-4.2a1.567,1.567,0,0,1-1.046-.31.823.823,0,0,1-.31-.7v-.349h3.836l.7-1.782H33.551V191.2Z" transform="translate(0.1 -153.498)" fill="#262261"/></svg>